{
    "asset" : {
        "generator" : "Khronos glTF Blender I/O v1.7.33",
        "version" : "2.0"
    },
    "scene" : 0,
    "scenes" : [
        {
            "name" : "Scene",
            "nodes" : [
                0,
                1,
                2,
                3,
                4,
                5
            ]
        }
    ],
    "nodes" : [
        {
            "mesh" : 0,
            "name" : "Cabinet",
            "scale" : [
                0.23812997341156006,
                0.28022533655166626,
                0.20799332857131958
            ],
            "translation" : [
                0.987405002117157,
                -0.9524932503700256,
                -1.5176026821136475
            ]
        },
        {
            "mesh" : 1,
            "name" : "Amplifyer",
            "rotation" : [
                -0.0158527921885252,
                -0.012239553034305573,
                -0.002240279456600547,
                0.9997969269752502
            ],
            "scale" : [
                0.259660542011261,
                0.07566070556640625,
                0.09109426289796829
            ],
            "translation" : [
                0.4405825138092041,
                -1.138745665550232,
                -1.5420318841934204
            ]
        },
        {
            "mesh" : 2,
            "name" : "NUC",
            "rotation" : [
                0.0005393943865783513,
                0.7288306951522827,
                0.00034039924503304064,
                0.6846936941146851
            ],
            "scale" : [
                0.043759237974882126,
                0.023093553259968758,
                0.03526560589671135
            ],
            "translation" : [
                -0.5559077858924866,
                -0.21323136985301971,
                -1.2187185287475586
            ]
        },
        {
            "mesh" : 3,
            "name" : "Desktop",
            "rotation" : [
                0.0003248845459893346,
                0.3365212082862854,
                0.0005488788010552526,
                0.9416756629943848
            ],
            "scale" : [
                0.08062712848186493,
                0.2068503350019455,
                0.11977723985910416
            ],
            "translation" : [
                -0.2973846197128296,
                -0.9865033030509949,
                -1.714277982711792
            ]
        },
        {
            "mesh" : 4,
            "name" : "Desk1",
            "scale" : [
                1,
                -0.012902021408081055,
                0.38614505529403687
            ],
            "translation" : [
                0.3850419819355011,
                -0.17306162416934967,
                -1.6514592170715332
            ]
        },
        {
            "mesh" : 5,
            "name" : "Monitor",
            "rotation" : [
                -0.13745394349098206,
                -0.12750984728336334,
                0.7245553135871887,
                0.6632248759269714
            ],
            "scale" : [
                0.17399559915065765,
                -0.0062917741015553474,
                0.35109394788742065
            ],
            "translation" : [
                -0.4671780467033386,
                0.022943992167711258,
                -1.619715690612793
            ]
        }
    ],
    "meshes" : [
        {
            "name" : "Cube.003",
            "primitives" : [
                {
                    "attributes" : {
                        "POSITION" : 0,
                        "NORMAL" : 1,
                        "TEXCOORD_0" : 2
                    },
                    "indices" : 3
                }
            ]
        },
        {
            "name" : "Cube.004",
            "primitives" : [
                {
                    "attributes" : {
                        "POSITION" : 4,
                        "NORMAL" : 5,
                        "TEXCOORD_0" : 6
                    },
                    "indices" : 3
                }
            ]
        },
        {
            "name" : "Cube.005",
            "primitives" : [
                {
                    "attributes" : {
                        "POSITION" : 7,
                        "NORMAL" : 8,
                        "TEXCOORD_0" : 9
                    },
                    "indices" : 3
                }
            ]
        },
        {
            "name" : "Cube.006",
            "primitives" : [
                {
                    "attributes" : {
                        "POSITION" : 10,
                        "NORMAL" : 11,
                        "TEXCOORD_0" : 12
                    },
                    "indices" : 3
                }
            ]
        },
        {
            "name" : "Cube.001",
            "primitives" : [
                {
                    "attributes" : {
                        "POSITION" : 13,
                        "NORMAL" : 14,
                        "TEXCOORD_0" : 15
                    },
                    "indices" : 16
                }
            ]
        },
        {
            "name" : "Cube.007",
            "primitives" : [
                {
                    "attributes" : {
                        "POSITION" : 17,
                        "NORMAL" : 18,
                        "TEXCOORD_0" : 19
                    },
                    "indices" : 3
                }
            ]
        }
    ],
    "accessors" : [
        {
            "bufferView" : 0,
            "componentType" : 5126,
            "count" : 24,
            "max" : [
                1,
                1,
                1
            ],
            "min" : [
                -1,
                -1,
                -1
            ],
            "type" : "VEC3"
        },
        {
            "bufferView" : 1,
            "componentType" : 5126,
            "count" : 24,
            "type" : "VEC3"
        },
        {
            "bufferView" : 2,
            "componentType" : 5126,
            "count" : 24,
            "type" : "VEC2"
        },
        {
            "bufferView" : 3,
            "componentType" : 5123,
            "count" : 36,
            "type" : "SCALAR"
        },
        {
            "bufferView" : 4,
            "componentType" : 5126,
            "count" : 24,
            "max" : [
                1,
                1,
                1
            ],
            "min" : [
                -1,
                -1,
                -1
            ],
            "type" : "VEC3"
        },
        {
            "bufferView" : 5,
            "componentType" : 5126,
            "count" : 24,
            "type" : "VEC3"
        },
        {
            "bufferView" : 6,
            "componentType" : 5126,
            "count" : 24,
            "type" : "VEC2"
        },
        {
            "bufferView" : 7,
            "componentType" : 5126,
            "count" : 24,
            "max" : [
                1,
                1,
                1
            ],
            "min" : [
                -1,
                -1,
                -1
            ],
            "type" : "VEC3"
        },
        {
            "bufferView" : 8,
            "componentType" : 5126,
            "count" : 24,
            "type" : "VEC3"
        },
        {
            "bufferView" : 9,
            "componentType" : 5126,
            "count" : 24,
            "type" : "VEC2"
        },
        {
            "bufferView" : 10,
            "componentType" : 5126,
            "count" : 24,
            "max" : [
                1,
                1,
                1
            ],
            "min" : [
                -1,
                -1,
                -1
            ],
            "type" : "VEC3"
        },
        {
            "bufferView" : 11,
            "componentType" : 5126,
            "count" : 24,
            "type" : "VEC3"
        },
        {
            "bufferView" : 12,
            "componentType" : 5126,
            "count" : 24,
            "type" : "VEC2"
        },
        {
            "bufferView" : 13,
            "componentType" : 5126,
            "count" : 48,
            "max" : [
                1,
                1.0339126586914062,
                2.926177978515625
            ],
            "min" : [
                -1.0036256313323975,
                -1,
                -1
            ],
            "type" : "VEC3"
        },
        {
            "bufferView" : 14,
            "componentType" : 5126,
            "count" : 48,
            "type" : "VEC3"
        },
        {
            "bufferView" : 15,
            "componentType" : 5126,
            "count" : 48,
            "type" : "VEC2"
        },
        {
            "bufferView" : 16,
            "componentType" : 5123,
            "count" : 72,
            "type" : "SCALAR"
        },
        {
            "bufferView" : 17,
            "componentType" : 5126,
            "count" : 24,
            "max" : [
                1,
                1,
                1
            ],
            "min" : [
                -1,
                -1,
                -1
            ],
            "type" : "VEC3"
        },
        {
            "bufferView" : 18,
            "componentType" : 5126,
            "count" : 24,
            "type" : "VEC3"
        },
        {
            "bufferView" : 19,
            "componentType" : 5126,
            "count" : 24,
            "type" : "VEC2"
        }
    ],
    "bufferViews" : [
        {
            "buffer" : 0,
            "byteLength" : 288,
            "byteOffset" : 0
        },
        {
            "buffer" : 0,
            "byteLength" : 288,
            "byteOffset" : 288
        },
        {
            "buffer" : 0,
            "byteLength" : 192,
            "byteOffset" : 576
        },
        {
            "buffer" : 0,
            "byteLength" : 72,
            "byteOffset" : 768
        },
        {
            "buffer" : 0,
            "byteLength" : 288,
            "byteOffset" : 840
        },
        {
            "buffer" : 0,
            "byteLength" : 288,
            "byteOffset" : 1128
        },
        {
            "buffer" : 0,
            "byteLength" : 192,
            "byteOffset" : 1416
        },
        {
            "buffer" : 0,
            "byteLength" : 288,
            "byteOffset" : 1608
        },
        {
            "buffer" : 0,
            "byteLength" : 288,
            "byteOffset" : 1896
        },
        {
            "buffer" : 0,
            "byteLength" : 192,
            "byteOffset" : 2184
        },
        {
            "buffer" : 0,
            "byteLength" : 288,
            "byteOffset" : 2376
        },
        {
            "buffer" : 0,
            "byteLength" : 288,
            "byteOffset" : 2664
        },
        {
            "buffer" : 0,
            "byteLength" : 192,
            "byteOffset" : 2952
        },
        {
            "buffer" : 0,
            "byteLength" : 576,
            "byteOffset" : 3144
        },
        {
            "buffer" : 0,
            "byteLength" : 576,
            "byteOffset" : 3720
        },
        {
            "buffer" : 0,
            "byteLength" : 384,
            "byteOffset" : 4296
        },
        {
            "buffer" : 0,
            "byteLength" : 144,
            "byteOffset" : 4680
        },
        {
            "buffer" : 0,
            "byteLength" : 288,
            "byteOffset" : 4824
        },
        {
            "buffer" : 0,
            "byteLength" : 288,
            "byteOffset" : 5112
        },
        {
            "buffer" : 0,
            "byteLength" : 192,
            "byteOffset" : 5400
        }
    ],
    "buffers" : [
        {
            "byteLength" : 5592,
            "uri" : "data:application/octet-stream;base64,"
        }
    ]
}
